%TF.GenerationSoftware,KiCad,Pcbnew,7.0.8*%
%TF.CreationDate,2023-10-15T22:05:22-04:00*%
%TF.ProjectId,Gates Out,47617465-7320-44f7-9574-2e6b69636164,rev?*%
%TF.SameCoordinates,Original*%
%TF.FileFunction,Soldermask,Top*%
%TF.FilePolarity,Negative*%
%FSLAX46Y46*%
G04 Gerber Fmt 4.6, Leading zero omitted, Abs format (unit mm)*
G04 Created by KiCad (PCBNEW 7.0.8) date 2023-10-15 22:05:22*
%MOMM*%
%LPD*%
G01*
G04 APERTURE LIST*
G04 Aperture macros list*
%AMRoundRect*
0 Rectangle with rounded corners*
0 $1 Rounding radius*
0 $2 $3 $4 $5 $6 $7 $8 $9 X,Y pos of 4 corners*
0 Add a 4 corners polygon primitive as box body*
4,1,4,$2,$3,$4,$5,$6,$7,$8,$9,$2,$3,0*
0 Add four circle primitives for the rounded corners*
1,1,$1+$1,$2,$3*
1,1,$1+$1,$4,$5*
1,1,$1+$1,$6,$7*
1,1,$1+$1,$8,$9*
0 Add four rect primitives between the rounded corners*
20,1,$1+$1,$2,$3,$4,$5,0*
20,1,$1+$1,$4,$5,$6,$7,0*
20,1,$1+$1,$6,$7,$8,$9,0*
20,1,$1+$1,$8,$9,$2,$3,0*%
G04 Aperture macros list end*
%ADD10R,1.600000X1.600000*%
%ADD11O,1.600000X1.600000*%
%ADD12R,1.800000X1.800000*%
%ADD13C,1.800000*%
%ADD14RoundRect,0.750000X1.250000X0.750000X-1.250000X0.750000X-1.250000X-0.750000X1.250000X-0.750000X0*%
%ADD15C,1.400000*%
%ADD16O,1.400000X1.400000*%
%ADD17R,1.930000X1.830000*%
%ADD18C,2.130000*%
%ADD19O,1.700000X1.700000*%
%ADD20R,1.700000X1.700000*%
G04 APERTURE END LIST*
D10*
%TO.C,U1*%
X147320000Y-132080000D03*
D11*
X147320000Y-134620000D03*
X147320000Y-137160000D03*
X147320000Y-139700000D03*
X147320000Y-142240000D03*
X147320000Y-144780000D03*
X147320000Y-147320000D03*
X154940000Y-147320000D03*
X154940000Y-144780000D03*
X154940000Y-142240000D03*
X154940000Y-139700000D03*
X154940000Y-137160000D03*
X154940000Y-134620000D03*
X154940000Y-132080000D03*
%TD*%
D12*
%TO.C,RV4*%
X154320000Y-114340000D03*
D13*
X154320000Y-116840000D03*
X154320000Y-119340000D03*
D14*
X147320000Y-112440000D03*
X147320000Y-121240000D03*
%TD*%
D12*
%TO.C,RV3*%
X154940000Y-96520000D03*
D13*
X154940000Y-99020000D03*
X154940000Y-101520000D03*
D14*
X147940000Y-94620000D03*
X147940000Y-103420000D03*
%TD*%
D12*
%TO.C,RV2*%
X154320000Y-78780000D03*
D13*
X154320000Y-81280000D03*
X154320000Y-83780000D03*
D14*
X147320000Y-76880000D03*
X147320000Y-85680000D03*
%TD*%
D12*
%TO.C,RV1*%
X154320000Y-60320000D03*
D13*
X154320000Y-62820000D03*
X154320000Y-65320000D03*
D14*
X147320000Y-58420000D03*
X147320000Y-67220000D03*
%TD*%
D15*
%TO.C,R8*%
X162560000Y-114300000D03*
D16*
X162560000Y-119380000D03*
%TD*%
D15*
%TO.C,R7*%
X162560000Y-111760000D03*
D16*
X167640000Y-111760000D03*
%TD*%
D15*
%TO.C,R6*%
X162560000Y-96520000D03*
D16*
X162560000Y-101600000D03*
%TD*%
D15*
%TO.C,R5*%
X162560000Y-93980000D03*
D16*
X167640000Y-93980000D03*
%TD*%
D15*
%TO.C,R4*%
X162560000Y-78740000D03*
D16*
X162560000Y-83820000D03*
%TD*%
%TO.C,R3*%
X167640000Y-76200000D03*
D15*
X162560000Y-76200000D03*
%TD*%
%TO.C,R2*%
X162560000Y-60960000D03*
D16*
X162560000Y-66040000D03*
%TD*%
D15*
%TO.C,R1*%
X162560000Y-58420000D03*
D16*
X167640000Y-58420000D03*
%TD*%
D17*
%TO.C,J6*%
X132080000Y-111060000D03*
D18*
X132080000Y-122460000D03*
X132080000Y-114160000D03*
%TD*%
D17*
%TO.C,J5*%
X132080000Y-93420000D03*
D18*
X132080000Y-104820000D03*
X132080000Y-96520000D03*
%TD*%
D17*
%TO.C,J4*%
X132080000Y-75500000D03*
D18*
X132080000Y-86900000D03*
X132080000Y-78600000D03*
%TD*%
D17*
%TO.C,J3*%
X132080000Y-57720000D03*
D18*
X132080000Y-69120000D03*
X132080000Y-60820000D03*
%TD*%
D19*
%TO.C,J2*%
X132080000Y-147320000D03*
X132080000Y-144780000D03*
X132080000Y-142240000D03*
D20*
X132080000Y-139700000D03*
%TD*%
%TO.C,J1*%
X167640000Y-137160000D03*
D19*
X170180000Y-137160000D03*
X167640000Y-139700000D03*
X170180000Y-139700000D03*
X167640000Y-142240000D03*
X170180000Y-142240000D03*
X167640000Y-144780000D03*
X170180000Y-144780000D03*
X167640000Y-147320000D03*
X170180000Y-147320000D03*
%TD*%
M02*
