%TF.GenerationSoftware,KiCad,Pcbnew,7.0.8*%
%TF.CreationDate,2023-10-15T22:05:21-04:00*%
%TF.ProjectId,Gates Out,47617465-7320-44f7-9574-2e6b69636164,rev?*%
%TF.SameCoordinates,Original*%
%TF.FileFunction,Copper,L1,Top*%
%TF.FilePolarity,Positive*%
%FSLAX46Y46*%
G04 Gerber Fmt 4.6, Leading zero omitted, Abs format (unit mm)*
G04 Created by KiCad (PCBNEW 7.0.8) date 2023-10-15 22:05:21*
%MOMM*%
%LPD*%
G01*
G04 APERTURE LIST*
G04 Aperture macros list*
%AMRoundRect*
0 Rectangle with rounded corners*
0 $1 Rounding radius*
0 $2 $3 $4 $5 $6 $7 $8 $9 X,Y pos of 4 corners*
0 Add a 4 corners polygon primitive as box body*
4,1,4,$2,$3,$4,$5,$6,$7,$8,$9,$2,$3,0*
0 Add four circle primitives for the rounded corners*
1,1,$1+$1,$2,$3*
1,1,$1+$1,$4,$5*
1,1,$1+$1,$6,$7*
1,1,$1+$1,$8,$9*
0 Add four rect primitives between the rounded corners*
20,1,$1+$1,$2,$3,$4,$5,0*
20,1,$1+$1,$4,$5,$6,$7,0*
20,1,$1+$1,$6,$7,$8,$9,0*
20,1,$1+$1,$8,$9,$2,$3,0*%
G04 Aperture macros list end*
%TA.AperFunction,ComponentPad*%
%ADD10R,1.600000X1.600000*%
%TD*%
%TA.AperFunction,ComponentPad*%
%ADD11O,1.600000X1.600000*%
%TD*%
%TA.AperFunction,ComponentPad*%
%ADD12R,1.800000X1.800000*%
%TD*%
%TA.AperFunction,ComponentPad*%
%ADD13C,1.800000*%
%TD*%
%TA.AperFunction,ComponentPad*%
%ADD14RoundRect,0.750000X1.250000X0.750000X-1.250000X0.750000X-1.250000X-0.750000X1.250000X-0.750000X0*%
%TD*%
%TA.AperFunction,ComponentPad*%
%ADD15C,1.400000*%
%TD*%
%TA.AperFunction,ComponentPad*%
%ADD16O,1.400000X1.400000*%
%TD*%
%TA.AperFunction,ComponentPad*%
%ADD17R,1.930000X1.830000*%
%TD*%
%TA.AperFunction,ComponentPad*%
%ADD18C,2.130000*%
%TD*%
%TA.AperFunction,ComponentPad*%
%ADD19O,1.700000X1.700000*%
%TD*%
%TA.AperFunction,ComponentPad*%
%ADD20R,1.700000X1.700000*%
%TD*%
%TA.AperFunction,Conductor*%
%ADD21C,0.250000*%
%TD*%
G04 APERTURE END LIST*
D10*
%TO.P,U1,1*%
%TO.N,Net-(J3-PadT)*%
X147320000Y-132080000D03*
D11*
%TO.P,U1,2,-*%
%TO.N,Net-(U1A--)*%
X147320000Y-134620000D03*
%TO.P,U1,3,+*%
%TO.N,in1*%
X147320000Y-137160000D03*
%TO.P,U1,4,V+*%
%TO.N,Net-(J1-Pin_9)*%
X147320000Y-139700000D03*
%TO.P,U1,5,+*%
%TO.N,in2*%
X147320000Y-142240000D03*
%TO.P,U1,6,-*%
%TO.N,Net-(U1B--)*%
X147320000Y-144780000D03*
%TO.P,U1,7*%
%TO.N,Net-(J4-PadT)*%
X147320000Y-147320000D03*
%TO.P,U1,8*%
%TO.N,Net-(J5-PadT)*%
X154940000Y-147320000D03*
%TO.P,U1,9,-*%
%TO.N,Net-(U1C--)*%
X154940000Y-144780000D03*
%TO.P,U1,10,+*%
%TO.N,in3*%
X154940000Y-142240000D03*
%TO.P,U1,11,V-*%
%TO.N,Net-(J1-Pin_1)*%
X154940000Y-139700000D03*
%TO.P,U1,12,+*%
%TO.N,in4*%
X154940000Y-137160000D03*
%TO.P,U1,13,-*%
%TO.N,Net-(U1D--)*%
X154940000Y-134620000D03*
%TO.P,U1,14*%
%TO.N,Net-(J6-PadT)*%
X154940000Y-132080000D03*
%TD*%
D12*
%TO.P,RV4,1,1*%
%TO.N,GND*%
X154320000Y-114340000D03*
D13*
%TO.P,RV4,2,2*%
%TO.N,unconnected-(RV4-Pad2)*%
X154320000Y-116840000D03*
%TO.P,RV4,3,3*%
%TO.N,Net-(J6-PadT)*%
X154320000Y-119340000D03*
D14*
%TO.P,RV4,MP*%
%TO.N,N/C*%
X147320000Y-112440000D03*
X147320000Y-121240000D03*
%TD*%
D12*
%TO.P,RV3,1,1*%
%TO.N,GND*%
X154940000Y-96520000D03*
D13*
%TO.P,RV3,2,2*%
%TO.N,unconnected-(RV3-Pad2)*%
X154940000Y-99020000D03*
%TO.P,RV3,3,3*%
%TO.N,Net-(J5-PadT)*%
X154940000Y-101520000D03*
D14*
%TO.P,RV3,MP*%
%TO.N,N/C*%
X147940000Y-94620000D03*
X147940000Y-103420000D03*
%TD*%
D12*
%TO.P,RV2,1,1*%
%TO.N,GND*%
X154320000Y-78780000D03*
D13*
%TO.P,RV2,2,2*%
%TO.N,unconnected-(RV2-Pad2)*%
X154320000Y-81280000D03*
%TO.P,RV2,3,3*%
%TO.N,Net-(J4-PadT)*%
X154320000Y-83780000D03*
D14*
%TO.P,RV2,MP*%
%TO.N,N/C*%
X147320000Y-76880000D03*
X147320000Y-85680000D03*
%TD*%
D12*
%TO.P,RV1,1,1*%
%TO.N,GND*%
X154320000Y-60320000D03*
D13*
%TO.P,RV1,2,2*%
%TO.N,unconnected-(RV1-Pad2)*%
X154320000Y-62820000D03*
%TO.P,RV1,3,3*%
%TO.N,Net-(J3-PadT)*%
X154320000Y-65320000D03*
D14*
%TO.P,RV1,MP*%
%TO.N,N/C*%
X147320000Y-58420000D03*
X147320000Y-67220000D03*
%TD*%
D15*
%TO.P,R8,1*%
%TO.N,Net-(J6-PadT)*%
X162560000Y-114300000D03*
D16*
%TO.P,R8,2*%
%TO.N,Net-(U1D--)*%
X162560000Y-119380000D03*
%TD*%
D15*
%TO.P,R7,1*%
%TO.N,GND*%
X162560000Y-111760000D03*
D16*
%TO.P,R7,2*%
%TO.N,Net-(U1D--)*%
X167640000Y-111760000D03*
%TD*%
D15*
%TO.P,R6,1*%
%TO.N,Net-(J5-PadT)*%
X162560000Y-96520000D03*
D16*
%TO.P,R6,2*%
%TO.N,Net-(U1C--)*%
X162560000Y-101600000D03*
%TD*%
D15*
%TO.P,R5,1*%
%TO.N,GND*%
X162560000Y-93980000D03*
D16*
%TO.P,R5,2*%
%TO.N,Net-(U1C--)*%
X167640000Y-93980000D03*
%TD*%
D15*
%TO.P,R4,1*%
%TO.N,Net-(J4-PadT)*%
X162560000Y-78740000D03*
D16*
%TO.P,R4,2*%
%TO.N,Net-(U1B--)*%
X162560000Y-83820000D03*
%TD*%
%TO.P,R3,2*%
%TO.N,Net-(U1B--)*%
X167640000Y-76200000D03*
D15*
%TO.P,R3,1*%
%TO.N,GND*%
X162560000Y-76200000D03*
%TD*%
%TO.P,R2,1*%
%TO.N,Net-(J3-PadT)*%
X162560000Y-60960000D03*
D16*
%TO.P,R2,2*%
%TO.N,Net-(U1A--)*%
X162560000Y-66040000D03*
%TD*%
D15*
%TO.P,R1,1*%
%TO.N,GND*%
X162560000Y-58420000D03*
D16*
%TO.P,R1,2*%
%TO.N,Net-(U1A--)*%
X167640000Y-58420000D03*
%TD*%
D17*
%TO.P,J6,S*%
%TO.N,GND*%
X132080000Y-111060000D03*
D18*
%TO.P,J6,T*%
%TO.N,Net-(J6-PadT)*%
X132080000Y-122460000D03*
%TO.P,J6,TN*%
%TO.N,unconnected-(J6-PadTN)*%
X132080000Y-114160000D03*
%TD*%
D17*
%TO.P,J5,S*%
%TO.N,GND*%
X132080000Y-93420000D03*
D18*
%TO.P,J5,T*%
%TO.N,Net-(J5-PadT)*%
X132080000Y-104820000D03*
%TO.P,J5,TN*%
%TO.N,unconnected-(J5-PadTN)*%
X132080000Y-96520000D03*
%TD*%
D17*
%TO.P,J4,S*%
%TO.N,GND*%
X132080000Y-75500000D03*
D18*
%TO.P,J4,T*%
%TO.N,Net-(J4-PadT)*%
X132080000Y-86900000D03*
%TO.P,J4,TN*%
%TO.N,unconnected-(J4-PadTN)*%
X132080000Y-78600000D03*
%TD*%
D17*
%TO.P,J3,S*%
%TO.N,GND*%
X132080000Y-57720000D03*
D18*
%TO.P,J3,T*%
%TO.N,Net-(J3-PadT)*%
X132080000Y-69120000D03*
%TO.P,J3,TN*%
%TO.N,unconnected-(J3-PadTN)*%
X132080000Y-60820000D03*
%TD*%
D19*
%TO.P,J2,4,Pin_4*%
%TO.N,in4*%
X132080000Y-147320000D03*
%TO.P,J2,3,Pin_3*%
%TO.N,in3*%
X132080000Y-144780000D03*
%TO.P,J2,2,Pin_2*%
%TO.N,in2*%
X132080000Y-142240000D03*
D20*
%TO.P,J2,1,Pin_1*%
%TO.N,in1*%
X132080000Y-139700000D03*
%TD*%
%TO.P,J1,1,Pin_1*%
%TO.N,Net-(J1-Pin_1)*%
X167640000Y-137160000D03*
D19*
%TO.P,J1,2,Pin_2*%
%TO.N,unconnected-(J1-Pin_2-Pad2)*%
X170180000Y-137160000D03*
%TO.P,J1,3,Pin_3*%
%TO.N,unconnected-(J1-Pin_3-Pad3)*%
X167640000Y-139700000D03*
%TO.P,J1,4,Pin_4*%
%TO.N,unconnected-(J1-Pin_4-Pad4)*%
X170180000Y-139700000D03*
%TO.P,J1,5,Pin_5*%
%TO.N,unconnected-(J1-Pin_5-Pad5)*%
X167640000Y-142240000D03*
%TO.P,J1,6,Pin_6*%
%TO.N,unconnected-(J1-Pin_6-Pad6)*%
X170180000Y-142240000D03*
%TO.P,J1,7,Pin_7*%
%TO.N,unconnected-(J1-Pin_7-Pad7)*%
X167640000Y-144780000D03*
%TO.P,J1,8,Pin_8*%
%TO.N,unconnected-(J1-Pin_8-Pad8)*%
X170180000Y-144780000D03*
%TO.P,J1,9,Pin_9*%
%TO.N,Net-(J1-Pin_9)*%
X167640000Y-147320000D03*
%TO.P,J1,10,Pin_10*%
%TO.N,unconnected-(J1-Pin_10-Pad10)*%
X170180000Y-147320000D03*
%TD*%
D21*
%TO.N,Net-(U1C--)*%
X154940000Y-144780000D02*
X150760000Y-144780000D01*
X150760000Y-144780000D02*
X150760000Y-127636396D01*
X150760000Y-127636396D02*
X157480000Y-127636396D01*
X157480000Y-127636396D02*
X157930000Y-127186396D01*
X157930000Y-127186396D02*
X157930000Y-101413604D01*
X157930000Y-101413604D02*
X158116396Y-101600000D01*
X158116396Y-101600000D02*
X162560000Y-101600000D01*
%TO.N,Net-(J5-PadT)*%
X150310000Y-127450000D02*
X150760000Y-127000000D01*
X150760000Y-127000000D02*
X157480000Y-127000000D01*
X157480000Y-127000000D02*
X157480000Y-101600000D01*
X154940000Y-147320000D02*
X150310000Y-147320000D01*
X150310000Y-147320000D02*
X150310000Y-127450000D01*
X157480000Y-101600000D02*
X157400000Y-101520000D01*
X157400000Y-101520000D02*
X154940000Y-101520000D01*
%TO.N,Net-(J1-Pin_1)*%
X162560000Y-137160000D02*
X160020000Y-139700000D01*
X167640000Y-137160000D02*
X162560000Y-137160000D01*
X160020000Y-139700000D02*
X154940000Y-139700000D01*
%TO.N,Net-(J1-Pin_9)*%
X149860000Y-149860000D02*
X149860000Y-139700000D01*
X167640000Y-147320000D02*
X167640000Y-149860000D01*
X167640000Y-149860000D02*
X149860000Y-149860000D01*
X149860000Y-139700000D02*
X147320000Y-139700000D01*
%TD*%
M02*
