%TF.GenerationSoftware,KiCad,Pcbnew,7.0.8*%
%TF.CreationDate,2023-10-15T22:05:22-04:00*%
%TF.ProjectId,Gates Out,47617465-7320-44f7-9574-2e6b69636164,rev?*%
%TF.SameCoordinates,Original*%
%TF.FileFunction,Legend,Top*%
%TF.FilePolarity,Positive*%
%FSLAX46Y46*%
G04 Gerber Fmt 4.6, Leading zero omitted, Abs format (unit mm)*
G04 Created by KiCad (PCBNEW 7.0.8) date 2023-10-15 22:05:22*
%MOMM*%
%LPD*%
G01*
G04 APERTURE LIST*
%ADD10C,0.150000*%
%ADD11C,0.120000*%
G04 APERTURE END LIST*
D10*
X150368095Y-129204819D02*
X150368095Y-130014342D01*
X150368095Y-130014342D02*
X150415714Y-130109580D01*
X150415714Y-130109580D02*
X150463333Y-130157200D01*
X150463333Y-130157200D02*
X150558571Y-130204819D01*
X150558571Y-130204819D02*
X150749047Y-130204819D01*
X150749047Y-130204819D02*
X150844285Y-130157200D01*
X150844285Y-130157200D02*
X150891904Y-130109580D01*
X150891904Y-130109580D02*
X150939523Y-130014342D01*
X150939523Y-130014342D02*
X150939523Y-129204819D01*
X151939523Y-130204819D02*
X151368095Y-130204819D01*
X151653809Y-130204819D02*
X151653809Y-129204819D01*
X151653809Y-129204819D02*
X151558571Y-129347676D01*
X151558571Y-129347676D02*
X151463333Y-129442914D01*
X151463333Y-129442914D02*
X151368095Y-129490533D01*
X164934819Y-117006666D02*
X164458628Y-117339999D01*
X164934819Y-117578094D02*
X163934819Y-117578094D01*
X163934819Y-117578094D02*
X163934819Y-117197142D01*
X163934819Y-117197142D02*
X163982438Y-117101904D01*
X163982438Y-117101904D02*
X164030057Y-117054285D01*
X164030057Y-117054285D02*
X164125295Y-117006666D01*
X164125295Y-117006666D02*
X164268152Y-117006666D01*
X164268152Y-117006666D02*
X164363390Y-117054285D01*
X164363390Y-117054285D02*
X164411009Y-117101904D01*
X164411009Y-117101904D02*
X164458628Y-117197142D01*
X164458628Y-117197142D02*
X164458628Y-117578094D01*
X164363390Y-116435237D02*
X164315771Y-116530475D01*
X164315771Y-116530475D02*
X164268152Y-116578094D01*
X164268152Y-116578094D02*
X164172914Y-116625713D01*
X164172914Y-116625713D02*
X164125295Y-116625713D01*
X164125295Y-116625713D02*
X164030057Y-116578094D01*
X164030057Y-116578094D02*
X163982438Y-116530475D01*
X163982438Y-116530475D02*
X163934819Y-116435237D01*
X163934819Y-116435237D02*
X163934819Y-116244761D01*
X163934819Y-116244761D02*
X163982438Y-116149523D01*
X163982438Y-116149523D02*
X164030057Y-116101904D01*
X164030057Y-116101904D02*
X164125295Y-116054285D01*
X164125295Y-116054285D02*
X164172914Y-116054285D01*
X164172914Y-116054285D02*
X164268152Y-116101904D01*
X164268152Y-116101904D02*
X164315771Y-116149523D01*
X164315771Y-116149523D02*
X164363390Y-116244761D01*
X164363390Y-116244761D02*
X164363390Y-116435237D01*
X164363390Y-116435237D02*
X164411009Y-116530475D01*
X164411009Y-116530475D02*
X164458628Y-116578094D01*
X164458628Y-116578094D02*
X164553866Y-116625713D01*
X164553866Y-116625713D02*
X164744342Y-116625713D01*
X164744342Y-116625713D02*
X164839580Y-116578094D01*
X164839580Y-116578094D02*
X164887200Y-116530475D01*
X164887200Y-116530475D02*
X164934819Y-116435237D01*
X164934819Y-116435237D02*
X164934819Y-116244761D01*
X164934819Y-116244761D02*
X164887200Y-116149523D01*
X164887200Y-116149523D02*
X164839580Y-116101904D01*
X164839580Y-116101904D02*
X164744342Y-116054285D01*
X164744342Y-116054285D02*
X164553866Y-116054285D01*
X164553866Y-116054285D02*
X164458628Y-116101904D01*
X164458628Y-116101904D02*
X164411009Y-116149523D01*
X164411009Y-116149523D02*
X164363390Y-116244761D01*
X164933333Y-110294819D02*
X164600000Y-109818628D01*
X164361905Y-110294819D02*
X164361905Y-109294819D01*
X164361905Y-109294819D02*
X164742857Y-109294819D01*
X164742857Y-109294819D02*
X164838095Y-109342438D01*
X164838095Y-109342438D02*
X164885714Y-109390057D01*
X164885714Y-109390057D02*
X164933333Y-109485295D01*
X164933333Y-109485295D02*
X164933333Y-109628152D01*
X164933333Y-109628152D02*
X164885714Y-109723390D01*
X164885714Y-109723390D02*
X164838095Y-109771009D01*
X164838095Y-109771009D02*
X164742857Y-109818628D01*
X164742857Y-109818628D02*
X164361905Y-109818628D01*
X165266667Y-109294819D02*
X165933333Y-109294819D01*
X165933333Y-109294819D02*
X165504762Y-110294819D01*
X164934819Y-99226666D02*
X164458628Y-99559999D01*
X164934819Y-99798094D02*
X163934819Y-99798094D01*
X163934819Y-99798094D02*
X163934819Y-99417142D01*
X163934819Y-99417142D02*
X163982438Y-99321904D01*
X163982438Y-99321904D02*
X164030057Y-99274285D01*
X164030057Y-99274285D02*
X164125295Y-99226666D01*
X164125295Y-99226666D02*
X164268152Y-99226666D01*
X164268152Y-99226666D02*
X164363390Y-99274285D01*
X164363390Y-99274285D02*
X164411009Y-99321904D01*
X164411009Y-99321904D02*
X164458628Y-99417142D01*
X164458628Y-99417142D02*
X164458628Y-99798094D01*
X163934819Y-98369523D02*
X163934819Y-98559999D01*
X163934819Y-98559999D02*
X163982438Y-98655237D01*
X163982438Y-98655237D02*
X164030057Y-98702856D01*
X164030057Y-98702856D02*
X164172914Y-98798094D01*
X164172914Y-98798094D02*
X164363390Y-98845713D01*
X164363390Y-98845713D02*
X164744342Y-98845713D01*
X164744342Y-98845713D02*
X164839580Y-98798094D01*
X164839580Y-98798094D02*
X164887200Y-98750475D01*
X164887200Y-98750475D02*
X164934819Y-98655237D01*
X164934819Y-98655237D02*
X164934819Y-98464761D01*
X164934819Y-98464761D02*
X164887200Y-98369523D01*
X164887200Y-98369523D02*
X164839580Y-98321904D01*
X164839580Y-98321904D02*
X164744342Y-98274285D01*
X164744342Y-98274285D02*
X164506247Y-98274285D01*
X164506247Y-98274285D02*
X164411009Y-98321904D01*
X164411009Y-98321904D02*
X164363390Y-98369523D01*
X164363390Y-98369523D02*
X164315771Y-98464761D01*
X164315771Y-98464761D02*
X164315771Y-98655237D01*
X164315771Y-98655237D02*
X164363390Y-98750475D01*
X164363390Y-98750475D02*
X164411009Y-98798094D01*
X164411009Y-98798094D02*
X164506247Y-98845713D01*
X164933333Y-92514819D02*
X164600000Y-92038628D01*
X164361905Y-92514819D02*
X164361905Y-91514819D01*
X164361905Y-91514819D02*
X164742857Y-91514819D01*
X164742857Y-91514819D02*
X164838095Y-91562438D01*
X164838095Y-91562438D02*
X164885714Y-91610057D01*
X164885714Y-91610057D02*
X164933333Y-91705295D01*
X164933333Y-91705295D02*
X164933333Y-91848152D01*
X164933333Y-91848152D02*
X164885714Y-91943390D01*
X164885714Y-91943390D02*
X164838095Y-91991009D01*
X164838095Y-91991009D02*
X164742857Y-92038628D01*
X164742857Y-92038628D02*
X164361905Y-92038628D01*
X165838095Y-91514819D02*
X165361905Y-91514819D01*
X165361905Y-91514819D02*
X165314286Y-91991009D01*
X165314286Y-91991009D02*
X165361905Y-91943390D01*
X165361905Y-91943390D02*
X165457143Y-91895771D01*
X165457143Y-91895771D02*
X165695238Y-91895771D01*
X165695238Y-91895771D02*
X165790476Y-91943390D01*
X165790476Y-91943390D02*
X165838095Y-91991009D01*
X165838095Y-91991009D02*
X165885714Y-92086247D01*
X165885714Y-92086247D02*
X165885714Y-92324342D01*
X165885714Y-92324342D02*
X165838095Y-92419580D01*
X165838095Y-92419580D02*
X165790476Y-92467200D01*
X165790476Y-92467200D02*
X165695238Y-92514819D01*
X165695238Y-92514819D02*
X165457143Y-92514819D01*
X165457143Y-92514819D02*
X165361905Y-92467200D01*
X165361905Y-92467200D02*
X165314286Y-92419580D01*
X164934819Y-81446666D02*
X164458628Y-81779999D01*
X164934819Y-82018094D02*
X163934819Y-82018094D01*
X163934819Y-82018094D02*
X163934819Y-81637142D01*
X163934819Y-81637142D02*
X163982438Y-81541904D01*
X163982438Y-81541904D02*
X164030057Y-81494285D01*
X164030057Y-81494285D02*
X164125295Y-81446666D01*
X164125295Y-81446666D02*
X164268152Y-81446666D01*
X164268152Y-81446666D02*
X164363390Y-81494285D01*
X164363390Y-81494285D02*
X164411009Y-81541904D01*
X164411009Y-81541904D02*
X164458628Y-81637142D01*
X164458628Y-81637142D02*
X164458628Y-82018094D01*
X164268152Y-80589523D02*
X164934819Y-80589523D01*
X163887200Y-80827618D02*
X164601485Y-81065713D01*
X164601485Y-81065713D02*
X164601485Y-80446666D01*
X164933333Y-74734819D02*
X164600000Y-74258628D01*
X164361905Y-74734819D02*
X164361905Y-73734819D01*
X164361905Y-73734819D02*
X164742857Y-73734819D01*
X164742857Y-73734819D02*
X164838095Y-73782438D01*
X164838095Y-73782438D02*
X164885714Y-73830057D01*
X164885714Y-73830057D02*
X164933333Y-73925295D01*
X164933333Y-73925295D02*
X164933333Y-74068152D01*
X164933333Y-74068152D02*
X164885714Y-74163390D01*
X164885714Y-74163390D02*
X164838095Y-74211009D01*
X164838095Y-74211009D02*
X164742857Y-74258628D01*
X164742857Y-74258628D02*
X164361905Y-74258628D01*
X165266667Y-73734819D02*
X165885714Y-73734819D01*
X165885714Y-73734819D02*
X165552381Y-74115771D01*
X165552381Y-74115771D02*
X165695238Y-74115771D01*
X165695238Y-74115771D02*
X165790476Y-74163390D01*
X165790476Y-74163390D02*
X165838095Y-74211009D01*
X165838095Y-74211009D02*
X165885714Y-74306247D01*
X165885714Y-74306247D02*
X165885714Y-74544342D01*
X165885714Y-74544342D02*
X165838095Y-74639580D01*
X165838095Y-74639580D02*
X165790476Y-74687200D01*
X165790476Y-74687200D02*
X165695238Y-74734819D01*
X165695238Y-74734819D02*
X165409524Y-74734819D01*
X165409524Y-74734819D02*
X165314286Y-74687200D01*
X165314286Y-74687200D02*
X165266667Y-74639580D01*
X164934819Y-63666666D02*
X164458628Y-63999999D01*
X164934819Y-64238094D02*
X163934819Y-64238094D01*
X163934819Y-64238094D02*
X163934819Y-63857142D01*
X163934819Y-63857142D02*
X163982438Y-63761904D01*
X163982438Y-63761904D02*
X164030057Y-63714285D01*
X164030057Y-63714285D02*
X164125295Y-63666666D01*
X164125295Y-63666666D02*
X164268152Y-63666666D01*
X164268152Y-63666666D02*
X164363390Y-63714285D01*
X164363390Y-63714285D02*
X164411009Y-63761904D01*
X164411009Y-63761904D02*
X164458628Y-63857142D01*
X164458628Y-63857142D02*
X164458628Y-64238094D01*
X164030057Y-63285713D02*
X163982438Y-63238094D01*
X163982438Y-63238094D02*
X163934819Y-63142856D01*
X163934819Y-63142856D02*
X163934819Y-62904761D01*
X163934819Y-62904761D02*
X163982438Y-62809523D01*
X163982438Y-62809523D02*
X164030057Y-62761904D01*
X164030057Y-62761904D02*
X164125295Y-62714285D01*
X164125295Y-62714285D02*
X164220533Y-62714285D01*
X164220533Y-62714285D02*
X164363390Y-62761904D01*
X164363390Y-62761904D02*
X164934819Y-63333332D01*
X164934819Y-63333332D02*
X164934819Y-62714285D01*
X164933333Y-56954819D02*
X164600000Y-56478628D01*
X164361905Y-56954819D02*
X164361905Y-55954819D01*
X164361905Y-55954819D02*
X164742857Y-55954819D01*
X164742857Y-55954819D02*
X164838095Y-56002438D01*
X164838095Y-56002438D02*
X164885714Y-56050057D01*
X164885714Y-56050057D02*
X164933333Y-56145295D01*
X164933333Y-56145295D02*
X164933333Y-56288152D01*
X164933333Y-56288152D02*
X164885714Y-56383390D01*
X164885714Y-56383390D02*
X164838095Y-56431009D01*
X164838095Y-56431009D02*
X164742857Y-56478628D01*
X164742857Y-56478628D02*
X164361905Y-56478628D01*
X165885714Y-56954819D02*
X165314286Y-56954819D01*
X165600000Y-56954819D02*
X165600000Y-55954819D01*
X165600000Y-55954819D02*
X165504762Y-56097676D01*
X165504762Y-56097676D02*
X165409524Y-56192914D01*
X165409524Y-56192914D02*
X165314286Y-56240533D01*
X168576666Y-134284819D02*
X168576666Y-134999104D01*
X168576666Y-134999104D02*
X168529047Y-135141961D01*
X168529047Y-135141961D02*
X168433809Y-135237200D01*
X168433809Y-135237200D02*
X168290952Y-135284819D01*
X168290952Y-135284819D02*
X168195714Y-135284819D01*
X169576666Y-135284819D02*
X169005238Y-135284819D01*
X169290952Y-135284819D02*
X169290952Y-134284819D01*
X169290952Y-134284819D02*
X169195714Y-134427676D01*
X169195714Y-134427676D02*
X169100476Y-134522914D01*
X169100476Y-134522914D02*
X169005238Y-134570533D01*
D11*
%TO.C,U1*%
X156270000Y-130690000D02*
X145990000Y-130690000D01*
X156270000Y-148710000D02*
X156270000Y-130690000D01*
X145990000Y-148710000D02*
X156270000Y-148710000D01*
X153780000Y-130750000D02*
X152130000Y-130750000D01*
X148480000Y-130750000D02*
X148480000Y-148650000D01*
X148480000Y-148650000D02*
X153780000Y-148650000D01*
X150130000Y-130750000D02*
X148480000Y-130750000D01*
X145990000Y-130690000D02*
X145990000Y-148710000D01*
X153780000Y-148650000D02*
X153780000Y-130750000D01*
X150130000Y-130750000D02*
G75*
G03*
X152130000Y-130750000I1000000J0D01*
G01*
%TO.C,R8*%
X161640000Y-114920000D02*
X161640000Y-118760000D01*
X163480000Y-114920000D02*
X163480000Y-118760000D01*
%TO.C,R7*%
X163180000Y-112680000D02*
X167020000Y-112680000D01*
X163180000Y-110840000D02*
X167020000Y-110840000D01*
%TO.C,R6*%
X161640000Y-97140000D02*
X161640000Y-100980000D01*
X163480000Y-97140000D02*
X163480000Y-100980000D01*
%TO.C,R5*%
X163180000Y-94900000D02*
X167020000Y-94900000D01*
X163180000Y-93060000D02*
X167020000Y-93060000D01*
%TO.C,R4*%
X161640000Y-79360000D02*
X161640000Y-83200000D01*
X163480000Y-79360000D02*
X163480000Y-83200000D01*
%TO.C,R3*%
X163180000Y-75280000D02*
X167020000Y-75280000D01*
X163180000Y-77120000D02*
X167020000Y-77120000D01*
%TO.C,R2*%
X161640000Y-61580000D02*
X161640000Y-65420000D01*
X163480000Y-61580000D02*
X163480000Y-65420000D01*
%TO.C,R1*%
X163180000Y-59340000D02*
X167020000Y-59340000D01*
X163180000Y-57500000D02*
X167020000Y-57500000D01*
%TO.C,J1*%
X166310000Y-137160000D02*
X166310000Y-135830000D01*
X166310000Y-138430000D02*
X166310000Y-148650000D01*
X168910000Y-135830000D02*
X171510000Y-135830000D01*
X166310000Y-138430000D02*
X168910000Y-138430000D01*
X166310000Y-135830000D02*
X167640000Y-135830000D01*
X168910000Y-138430000D02*
X168910000Y-135830000D01*
X166310000Y-148650000D02*
X171510000Y-148650000D01*
X171510000Y-135830000D02*
X171510000Y-148650000D01*
%TD*%
M02*
