%TF.GenerationSoftware,KiCad,Pcbnew,7.0.8*%
%TF.CreationDate,2023-10-15T22:05:22-04:00*%
%TF.ProjectId,Gates Out,47617465-7320-44f7-9574-2e6b69636164,rev?*%
%TF.SameCoordinates,Original*%
%TF.FileFunction,Legend,Bot*%
%TF.FilePolarity,Positive*%
%FSLAX46Y46*%
G04 Gerber Fmt 4.6, Leading zero omitted, Abs format (unit mm)*
G04 Created by KiCad (PCBNEW 7.0.8) date 2023-10-15 22:05:22*
%MOMM*%
%LPD*%
G01*
G04 APERTURE LIST*
%ADD10C,0.150000*%
%ADD11C,0.120000*%
G04 APERTURE END LIST*
D10*
X148865238Y-109644819D02*
X149198571Y-109168628D01*
X149436666Y-109644819D02*
X149436666Y-108644819D01*
X149436666Y-108644819D02*
X149055714Y-108644819D01*
X149055714Y-108644819D02*
X148960476Y-108692438D01*
X148960476Y-108692438D02*
X148912857Y-108740057D01*
X148912857Y-108740057D02*
X148865238Y-108835295D01*
X148865238Y-108835295D02*
X148865238Y-108978152D01*
X148865238Y-108978152D02*
X148912857Y-109073390D01*
X148912857Y-109073390D02*
X148960476Y-109121009D01*
X148960476Y-109121009D02*
X149055714Y-109168628D01*
X149055714Y-109168628D02*
X149436666Y-109168628D01*
X148579523Y-108644819D02*
X148246190Y-109644819D01*
X148246190Y-109644819D02*
X147912857Y-108644819D01*
X147150952Y-108978152D02*
X147150952Y-109644819D01*
X147389047Y-108597200D02*
X147627142Y-109311485D01*
X147627142Y-109311485D02*
X147008095Y-109311485D01*
X149485238Y-91824819D02*
X149818571Y-91348628D01*
X150056666Y-91824819D02*
X150056666Y-90824819D01*
X150056666Y-90824819D02*
X149675714Y-90824819D01*
X149675714Y-90824819D02*
X149580476Y-90872438D01*
X149580476Y-90872438D02*
X149532857Y-90920057D01*
X149532857Y-90920057D02*
X149485238Y-91015295D01*
X149485238Y-91015295D02*
X149485238Y-91158152D01*
X149485238Y-91158152D02*
X149532857Y-91253390D01*
X149532857Y-91253390D02*
X149580476Y-91301009D01*
X149580476Y-91301009D02*
X149675714Y-91348628D01*
X149675714Y-91348628D02*
X150056666Y-91348628D01*
X149199523Y-90824819D02*
X148866190Y-91824819D01*
X148866190Y-91824819D02*
X148532857Y-90824819D01*
X148294761Y-90824819D02*
X147675714Y-90824819D01*
X147675714Y-90824819D02*
X148009047Y-91205771D01*
X148009047Y-91205771D02*
X147866190Y-91205771D01*
X147866190Y-91205771D02*
X147770952Y-91253390D01*
X147770952Y-91253390D02*
X147723333Y-91301009D01*
X147723333Y-91301009D02*
X147675714Y-91396247D01*
X147675714Y-91396247D02*
X147675714Y-91634342D01*
X147675714Y-91634342D02*
X147723333Y-91729580D01*
X147723333Y-91729580D02*
X147770952Y-91777200D01*
X147770952Y-91777200D02*
X147866190Y-91824819D01*
X147866190Y-91824819D02*
X148151904Y-91824819D01*
X148151904Y-91824819D02*
X148247142Y-91777200D01*
X148247142Y-91777200D02*
X148294761Y-91729580D01*
X148865238Y-74084819D02*
X149198571Y-73608628D01*
X149436666Y-74084819D02*
X149436666Y-73084819D01*
X149436666Y-73084819D02*
X149055714Y-73084819D01*
X149055714Y-73084819D02*
X148960476Y-73132438D01*
X148960476Y-73132438D02*
X148912857Y-73180057D01*
X148912857Y-73180057D02*
X148865238Y-73275295D01*
X148865238Y-73275295D02*
X148865238Y-73418152D01*
X148865238Y-73418152D02*
X148912857Y-73513390D01*
X148912857Y-73513390D02*
X148960476Y-73561009D01*
X148960476Y-73561009D02*
X149055714Y-73608628D01*
X149055714Y-73608628D02*
X149436666Y-73608628D01*
X148579523Y-73084819D02*
X148246190Y-74084819D01*
X148246190Y-74084819D02*
X147912857Y-73084819D01*
X147627142Y-73180057D02*
X147579523Y-73132438D01*
X147579523Y-73132438D02*
X147484285Y-73084819D01*
X147484285Y-73084819D02*
X147246190Y-73084819D01*
X147246190Y-73084819D02*
X147150952Y-73132438D01*
X147150952Y-73132438D02*
X147103333Y-73180057D01*
X147103333Y-73180057D02*
X147055714Y-73275295D01*
X147055714Y-73275295D02*
X147055714Y-73370533D01*
X147055714Y-73370533D02*
X147103333Y-73513390D01*
X147103333Y-73513390D02*
X147674761Y-74084819D01*
X147674761Y-74084819D02*
X147055714Y-74084819D01*
X148865238Y-55624819D02*
X149198571Y-55148628D01*
X149436666Y-55624819D02*
X149436666Y-54624819D01*
X149436666Y-54624819D02*
X149055714Y-54624819D01*
X149055714Y-54624819D02*
X148960476Y-54672438D01*
X148960476Y-54672438D02*
X148912857Y-54720057D01*
X148912857Y-54720057D02*
X148865238Y-54815295D01*
X148865238Y-54815295D02*
X148865238Y-54958152D01*
X148865238Y-54958152D02*
X148912857Y-55053390D01*
X148912857Y-55053390D02*
X148960476Y-55101009D01*
X148960476Y-55101009D02*
X149055714Y-55148628D01*
X149055714Y-55148628D02*
X149436666Y-55148628D01*
X148579523Y-54624819D02*
X148246190Y-55624819D01*
X148246190Y-55624819D02*
X147912857Y-54624819D01*
X147055714Y-55624819D02*
X147627142Y-55624819D01*
X147341428Y-55624819D02*
X147341428Y-54624819D01*
X147341428Y-54624819D02*
X147436666Y-54767676D01*
X147436666Y-54767676D02*
X147531904Y-54862914D01*
X147531904Y-54862914D02*
X147627142Y-54910533D01*
X136443333Y-111594819D02*
X136443333Y-112309104D01*
X136443333Y-112309104D02*
X136490952Y-112451961D01*
X136490952Y-112451961D02*
X136586190Y-112547200D01*
X136586190Y-112547200D02*
X136729047Y-112594819D01*
X136729047Y-112594819D02*
X136824285Y-112594819D01*
X135538571Y-111594819D02*
X135729047Y-111594819D01*
X135729047Y-111594819D02*
X135824285Y-111642438D01*
X135824285Y-111642438D02*
X135871904Y-111690057D01*
X135871904Y-111690057D02*
X135967142Y-111832914D01*
X135967142Y-111832914D02*
X136014761Y-112023390D01*
X136014761Y-112023390D02*
X136014761Y-112404342D01*
X136014761Y-112404342D02*
X135967142Y-112499580D01*
X135967142Y-112499580D02*
X135919523Y-112547200D01*
X135919523Y-112547200D02*
X135824285Y-112594819D01*
X135824285Y-112594819D02*
X135633809Y-112594819D01*
X135633809Y-112594819D02*
X135538571Y-112547200D01*
X135538571Y-112547200D02*
X135490952Y-112499580D01*
X135490952Y-112499580D02*
X135443333Y-112404342D01*
X135443333Y-112404342D02*
X135443333Y-112166247D01*
X135443333Y-112166247D02*
X135490952Y-112071009D01*
X135490952Y-112071009D02*
X135538571Y-112023390D01*
X135538571Y-112023390D02*
X135633809Y-111975771D01*
X135633809Y-111975771D02*
X135824285Y-111975771D01*
X135824285Y-111975771D02*
X135919523Y-112023390D01*
X135919523Y-112023390D02*
X135967142Y-112071009D01*
X135967142Y-112071009D02*
X136014761Y-112166247D01*
X136443333Y-93954819D02*
X136443333Y-94669104D01*
X136443333Y-94669104D02*
X136490952Y-94811961D01*
X136490952Y-94811961D02*
X136586190Y-94907200D01*
X136586190Y-94907200D02*
X136729047Y-94954819D01*
X136729047Y-94954819D02*
X136824285Y-94954819D01*
X135490952Y-93954819D02*
X135967142Y-93954819D01*
X135967142Y-93954819D02*
X136014761Y-94431009D01*
X136014761Y-94431009D02*
X135967142Y-94383390D01*
X135967142Y-94383390D02*
X135871904Y-94335771D01*
X135871904Y-94335771D02*
X135633809Y-94335771D01*
X135633809Y-94335771D02*
X135538571Y-94383390D01*
X135538571Y-94383390D02*
X135490952Y-94431009D01*
X135490952Y-94431009D02*
X135443333Y-94526247D01*
X135443333Y-94526247D02*
X135443333Y-94764342D01*
X135443333Y-94764342D02*
X135490952Y-94859580D01*
X135490952Y-94859580D02*
X135538571Y-94907200D01*
X135538571Y-94907200D02*
X135633809Y-94954819D01*
X135633809Y-94954819D02*
X135871904Y-94954819D01*
X135871904Y-94954819D02*
X135967142Y-94907200D01*
X135967142Y-94907200D02*
X136014761Y-94859580D01*
X136443333Y-76034819D02*
X136443333Y-76749104D01*
X136443333Y-76749104D02*
X136490952Y-76891961D01*
X136490952Y-76891961D02*
X136586190Y-76987200D01*
X136586190Y-76987200D02*
X136729047Y-77034819D01*
X136729047Y-77034819D02*
X136824285Y-77034819D01*
X135538571Y-76368152D02*
X135538571Y-77034819D01*
X135776666Y-75987200D02*
X136014761Y-76701485D01*
X136014761Y-76701485D02*
X135395714Y-76701485D01*
X136443333Y-58254819D02*
X136443333Y-58969104D01*
X136443333Y-58969104D02*
X136490952Y-59111961D01*
X136490952Y-59111961D02*
X136586190Y-59207200D01*
X136586190Y-59207200D02*
X136729047Y-59254819D01*
X136729047Y-59254819D02*
X136824285Y-59254819D01*
X136062380Y-58254819D02*
X135443333Y-58254819D01*
X135443333Y-58254819D02*
X135776666Y-58635771D01*
X135776666Y-58635771D02*
X135633809Y-58635771D01*
X135633809Y-58635771D02*
X135538571Y-58683390D01*
X135538571Y-58683390D02*
X135490952Y-58731009D01*
X135490952Y-58731009D02*
X135443333Y-58826247D01*
X135443333Y-58826247D02*
X135443333Y-59064342D01*
X135443333Y-59064342D02*
X135490952Y-59159580D01*
X135490952Y-59159580D02*
X135538571Y-59207200D01*
X135538571Y-59207200D02*
X135633809Y-59254819D01*
X135633809Y-59254819D02*
X135919523Y-59254819D01*
X135919523Y-59254819D02*
X136014761Y-59207200D01*
X136014761Y-59207200D02*
X136062380Y-59159580D01*
X132413333Y-136384819D02*
X132413333Y-137099104D01*
X132413333Y-137099104D02*
X132460952Y-137241961D01*
X132460952Y-137241961D02*
X132556190Y-137337200D01*
X132556190Y-137337200D02*
X132699047Y-137384819D01*
X132699047Y-137384819D02*
X132794285Y-137384819D01*
X131984761Y-136480057D02*
X131937142Y-136432438D01*
X131937142Y-136432438D02*
X131841904Y-136384819D01*
X131841904Y-136384819D02*
X131603809Y-136384819D01*
X131603809Y-136384819D02*
X131508571Y-136432438D01*
X131508571Y-136432438D02*
X131460952Y-136480057D01*
X131460952Y-136480057D02*
X131413333Y-136575295D01*
X131413333Y-136575295D02*
X131413333Y-136670533D01*
X131413333Y-136670533D02*
X131460952Y-136813390D01*
X131460952Y-136813390D02*
X132032380Y-137384819D01*
X132032380Y-137384819D02*
X131413333Y-137384819D01*
D11*
%TO.C,RV4*%
X153440000Y-111819000D02*
X153440000Y-113140000D01*
X153440000Y-111819000D02*
X149503000Y-111819000D01*
X153440000Y-115590000D02*
X153440000Y-115970000D01*
X153440000Y-117711000D02*
X153440000Y-118470000D01*
X153440000Y-120210000D02*
X153440000Y-121860000D01*
X153440000Y-121860000D02*
X149503000Y-121860000D01*
X145136000Y-111819000D02*
X141200000Y-111819000D01*
X145136000Y-121860000D02*
X141200000Y-121860000D01*
X141200000Y-111819000D02*
X141200000Y-121860000D01*
%TO.C,RV3*%
X154060000Y-93999000D02*
X154060000Y-95320000D01*
X154060000Y-93999000D02*
X150123000Y-93999000D01*
X154060000Y-97770000D02*
X154060000Y-98150000D01*
X154060000Y-99891000D02*
X154060000Y-100650000D01*
X154060000Y-102390000D02*
X154060000Y-104040000D01*
X154060000Y-104040000D02*
X150123000Y-104040000D01*
X145756000Y-93999000D02*
X141820000Y-93999000D01*
X145756000Y-104040000D02*
X141820000Y-104040000D01*
X141820000Y-93999000D02*
X141820000Y-104040000D01*
%TO.C,RV2*%
X153440000Y-76259000D02*
X153440000Y-77580000D01*
X153440000Y-76259000D02*
X149503000Y-76259000D01*
X153440000Y-80030000D02*
X153440000Y-80410000D01*
X153440000Y-82151000D02*
X153440000Y-82910000D01*
X153440000Y-84650000D02*
X153440000Y-86300000D01*
X153440000Y-86300000D02*
X149503000Y-86300000D01*
X145136000Y-76259000D02*
X141200000Y-76259000D01*
X145136000Y-86300000D02*
X141200000Y-86300000D01*
X141200000Y-76259000D02*
X141200000Y-86300000D01*
%TO.C,RV1*%
X153440000Y-57799000D02*
X153440000Y-59120000D01*
X153440000Y-57799000D02*
X149503000Y-57799000D01*
X153440000Y-61570000D02*
X153440000Y-61950000D01*
X153440000Y-63691000D02*
X153440000Y-64450000D01*
X153440000Y-66190000D02*
X153440000Y-67840000D01*
X153440000Y-67840000D02*
X149503000Y-67840000D01*
X145136000Y-57799000D02*
X141200000Y-57799000D01*
X145136000Y-67840000D02*
X141200000Y-67840000D01*
X141200000Y-57799000D02*
X141200000Y-67840000D01*
%TO.C,J6*%
X136580000Y-113040000D02*
X136580000Y-123540000D01*
X132800000Y-113040000D02*
X136580000Y-113040000D01*
X127580000Y-123540000D02*
X131280000Y-123540000D01*
X127580000Y-113040000D02*
X131360000Y-113040000D01*
X127580000Y-113040000D02*
X127580000Y-123540000D01*
X133310000Y-109890000D02*
X133310000Y-110690000D01*
X133310000Y-109890000D02*
X132450000Y-109890000D01*
X132880000Y-123540000D02*
X136580000Y-123540000D01*
X133880000Y-117540000D02*
G75*
G03*
X133880000Y-117540000I-1800000J0D01*
G01*
%TO.C,J5*%
X136580000Y-95400000D02*
X136580000Y-105900000D01*
X132800000Y-95400000D02*
X136580000Y-95400000D01*
X127580000Y-105900000D02*
X131280000Y-105900000D01*
X127580000Y-95400000D02*
X131360000Y-95400000D01*
X127580000Y-95400000D02*
X127580000Y-105900000D01*
X133310000Y-92250000D02*
X133310000Y-93050000D01*
X133310000Y-92250000D02*
X132450000Y-92250000D01*
X132880000Y-105900000D02*
X136580000Y-105900000D01*
X133880000Y-99900000D02*
G75*
G03*
X133880000Y-99900000I-1800000J0D01*
G01*
%TO.C,J4*%
X136580000Y-77480000D02*
X136580000Y-87980000D01*
X132800000Y-77480000D02*
X136580000Y-77480000D01*
X127580000Y-87980000D02*
X131280000Y-87980000D01*
X127580000Y-77480000D02*
X131360000Y-77480000D01*
X127580000Y-77480000D02*
X127580000Y-87980000D01*
X133310000Y-74330000D02*
X133310000Y-75130000D01*
X133310000Y-74330000D02*
X132450000Y-74330000D01*
X132880000Y-87980000D02*
X136580000Y-87980000D01*
X133880000Y-81980000D02*
G75*
G03*
X133880000Y-81980000I-1800000J0D01*
G01*
%TO.C,J3*%
X136580000Y-59700000D02*
X136580000Y-70200000D01*
X132800000Y-59700000D02*
X136580000Y-59700000D01*
X127580000Y-70200000D02*
X131280000Y-70200000D01*
X127580000Y-59700000D02*
X131360000Y-59700000D01*
X127580000Y-59700000D02*
X127580000Y-70200000D01*
X133310000Y-56550000D02*
X133310000Y-57350000D01*
X133310000Y-56550000D02*
X132450000Y-56550000D01*
X132880000Y-70200000D02*
X136580000Y-70200000D01*
X133880000Y-64200000D02*
G75*
G03*
X133880000Y-64200000I-1800000J0D01*
G01*
%TO.C,J2*%
X133410000Y-148650000D02*
X130750000Y-148650000D01*
X130750000Y-140970000D02*
X130750000Y-148650000D01*
X133410000Y-140970000D02*
X130750000Y-140970000D01*
X133410000Y-140970000D02*
X133410000Y-148650000D01*
X130750000Y-138370000D02*
X130750000Y-139700000D01*
X132080000Y-138370000D02*
X130750000Y-138370000D01*
%TD*%
M02*
